<svg width="159" height="154" viewBox="0 0 159 154" fill="none" xmlns="http://www.w3.org/2000/svg">
<g clip-path="url(#clip0_9_857)">
<path d="M100.94 34.6341H58.0962C57.1198 34.6353 56.1838 35.0206 55.4935 35.7056C54.8031 36.3907 54.4147 37.3194 54.4135 38.2882V132.77L53.9225 132.919L43.4123 136.112C42.9142 136.263 42.3762 136.211 41.9164 135.969C41.4566 135.726 41.1125 135.313 40.9598 134.819L9.69666 33.4916C9.54452 32.9973 9.59638 32.4634 9.84083 32.007C10.0853 31.5507 10.5023 31.2094 11.0003 31.058L27.1966 26.1372L74.15 11.8766L90.3461 6.95582C90.5926 6.88055 90.8516 6.85425 91.1083 6.87842C91.3651 6.90259 91.6145 6.97676 91.8423 7.09668C92.0701 7.2166 92.2718 7.37992 92.436 7.57729C92.6001 7.77467 92.7234 8.00222 92.7988 8.24692L100.79 34.1469L100.94 34.6341Z" fill="#555555"/>
<path d="M110.289 34.1471L100.658 2.9317C100.497 2.41159 100.235 1.92791 99.8867 1.5083C99.538 1.08868 99.1094 0.741362 98.6253 0.486177C98.1413 0.230992 97.6113 0.0729426 97.0657 0.0210674C96.5201 -0.0308077 95.9695 0.0245075 95.4454 0.183847L72.6745 7.09976L25.7236 21.3628L2.95275 28.2811C1.89494 28.6034 1.00921 29.329 0.489997 30.2986C-0.0292186 31.2682 -0.139507 32.4026 0.183344 33.4528L33.1011 140.134C33.3634 140.982 33.8926 141.724 34.611 142.251C35.3295 142.779 36.1994 143.064 37.0931 143.065C37.5068 143.065 37.9181 143.003 38.3132 142.882L53.9227 138.142L54.4137 137.991V137.481L53.9227 137.63L38.1684 142.417C37.2347 142.699 36.2262 142.603 35.3642 142.148C34.5021 141.694 33.8569 140.919 33.5701 139.993L0.65482 33.3091C0.512693 32.8504 0.463158 32.3683 0.50905 31.8906C0.554942 31.4128 0.695355 30.9488 0.922259 30.5249C1.14916 30.1011 1.4581 29.7259 1.83137 29.4207C2.20464 29.1155 2.63491 28.8864 3.09755 28.7464L25.8684 21.8281L72.8195 7.56748L95.5904 0.649135C95.9413 0.542874 96.3061 0.488694 96.673 0.488355C97.4604 0.490109 98.2265 0.741985 98.8591 1.20709C99.4918 1.67219 99.9577 2.32609 100.189 3.07299L109.776 34.1471L109.928 34.6343H110.439L110.289 34.1471Z" fill="#3C556C"/>
<path d="M30.1192 31.1376C29.646 31.1373 29.1854 30.9865 28.8049 30.7074C28.4244 30.4283 28.1441 30.0355 28.0051 29.5867L24.8428 19.3378C24.7579 19.0625 24.7284 18.7733 24.7561 18.4867C24.7837 18.2001 24.8681 17.9217 25.0042 17.6674C25.1403 17.4132 25.3256 17.188 25.5495 17.0048C25.7733 16.8216 26.0313 16.6839 26.3088 16.5997L69.5033 3.47825C70.0636 3.30859 70.6689 3.36645 71.1863 3.63914C71.7037 3.91183 72.0909 4.37707 72.263 4.93274L75.4252 15.1817C75.5961 15.7377 75.5377 16.3383 75.2629 16.8516C74.9881 17.365 74.5193 17.7492 73.9593 17.92L30.7648 31.0414C30.5556 31.1051 30.338 31.1375 30.1192 31.1376Z" fill="#3C556C"/>
<path d="M46.6842 10.9511C49.396 10.9511 51.5944 8.76982 51.5944 6.07905C51.5944 3.38827 49.396 1.20697 46.6842 1.20697C43.9724 1.20697 41.774 3.38827 41.774 6.07905C41.774 8.76982 43.9724 10.9511 46.6842 10.9511Z" fill="#3C556C"/>
<path d="M46.6842 9.1642C48.4014 9.1642 49.7935 7.78293 49.7935 6.07905C49.7935 4.37517 48.4014 2.9939 46.6842 2.9939C44.967 2.9939 43.575 4.37517 43.575 6.07905C43.575 7.78293 44.967 9.1642 46.6842 9.1642Z" fill="#18181B"/>
<path d="M147.952 141.82H64.9704C64.4171 141.819 63.8867 141.601 63.4955 141.213C63.1042 140.824 62.8842 140.298 62.8835 139.749V41.0896C62.8842 40.5406 63.1042 40.0143 63.4954 39.6261C63.8867 39.2379 64.4171 39.0196 64.9704 39.019H147.952C148.505 39.0196 149.036 39.238 149.427 39.6261C149.818 40.0143 150.038 40.5406 150.039 41.0896V139.749C150.038 140.298 149.818 140.824 149.427 141.213C149.036 141.601 148.505 141.819 147.952 141.82Z" fill="#555555"/>
<path d="M109.776 34.1469H58.0961C56.9897 34.1484 55.929 34.5853 55.1466 35.3616C54.3643 36.1379 53.9241 37.1903 53.9225 38.2882V137.63L54.4135 137.481V38.2882C54.4147 37.3194 54.8031 36.3907 55.4934 35.7056C56.1838 35.0206 57.1198 34.6353 58.0961 34.6341H109.928L109.776 34.1469ZM154.826 34.1469H58.0961C56.9897 34.1484 55.929 34.5853 55.1466 35.3616C54.3643 36.1379 53.9241 37.1903 53.9225 38.2882V149.859C53.9241 150.957 54.3643 152.009 55.1466 152.785C55.929 153.562 56.9897 153.998 58.0961 154H154.826C155.933 153.998 156.993 153.562 157.776 152.785C158.558 152.009 158.998 150.957 159 149.859V38.2882C158.998 37.1903 158.558 36.1379 157.776 35.3616C156.993 34.5853 155.933 34.1484 154.826 34.1469ZM158.509 149.859C158.508 150.827 158.119 151.756 157.429 152.441C156.739 153.126 155.803 153.512 154.826 153.513H58.0961C57.1198 153.512 56.1838 153.126 55.4934 152.441C54.8031 151.756 54.4147 150.827 54.4135 149.859V38.2882C54.4147 37.3194 54.8031 36.3907 55.4934 35.7056C56.1838 35.0206 57.1198 34.6353 58.0961 34.6341H154.826C155.803 34.6353 156.739 35.0206 157.429 35.7056C158.119 36.3907 158.508 37.3194 158.509 38.2882V149.859Z" fill="#3C556C"/>
<path d="M129.048 44.8655H83.8745C83.2887 44.8648 82.727 44.6336 82.3128 44.2226C81.8986 43.8116 81.6656 43.2543 81.6649 42.673V31.9545C81.6656 31.3732 81.8986 30.8159 82.3128 30.4049C82.7271 29.9939 83.2887 29.7627 83.8745 29.762H129.048C129.634 29.7627 130.195 29.9939 130.61 30.4049C131.024 30.8159 131.257 31.3732 131.258 31.9545V42.673C131.257 43.2543 131.024 43.8116 130.61 44.2226C130.195 44.6336 129.634 44.8648 129.048 44.8655Z" fill="#3C556C"/>
<path d="M106.461 30.4928C109.173 30.4928 111.371 28.3115 111.371 25.6208C111.371 22.93 109.173 20.7487 106.461 20.7487C103.75 20.7487 101.551 22.93 101.551 25.6208C101.551 28.3115 103.75 30.4928 106.461 30.4928Z" fill="#3C556C"/>
<path d="M106.461 28.5883C108.113 28.5883 109.452 27.2597 109.452 25.6207C109.452 23.9818 108.113 22.6532 106.461 22.6532C104.809 22.6532 103.47 23.9818 103.47 25.6207C103.47 27.2597 104.809 28.5883 106.461 28.5883Z" fill="#18181B"/>
</g>
<defs>
<clipPath id="clip0_9_857">
<rect width="159" height="154" fill="white"/>
</clipPath>
</defs>
</svg>
